<svg width="100" height="100" viewBox="0 0 100 100" fill="none" xmlns="http://www.w3.org/2000/svg">
<path d="M72.9163 27.0835H72.958M29.1663 8.3335H70.833C82.3389 8.3335 91.6663 17.6609 91.6663 29.1668V70.8335C91.6663 82.3394 82.3389 91.6668 70.833 91.6668H29.1663C17.6604 91.6668 8.33301 82.3394 8.33301 70.8335V29.1668C8.33301 17.6609 17.6604 8.3335 29.1663 8.3335ZM66.6663 47.3752C67.1806 50.8429 66.5883 54.3844 64.9737 57.4961C63.3591 60.6077 60.8045 63.131 57.6731 64.7071C54.5418 66.2832 50.9932 66.8318 47.5321 66.2749C44.071 65.7179 40.8737 64.0838 38.3948 61.605C35.916 59.1262 34.2819 55.9288 33.725 52.4677C33.168 49.0066 33.7166 45.4581 35.2927 42.3267C36.8688 39.1954 39.3921 36.6407 42.5038 35.0262C45.6154 33.4116 49.157 32.8193 52.6247 33.3335C56.1619 33.858 59.4366 35.5063 61.9651 38.0348C64.4936 40.5633 66.1418 43.838 66.6663 47.3752Z" stroke="#EFBF04" stroke-width="4" stroke-linecap="round" stroke-linejoin="round"/>
</svg>
