<svg width="191" height="184" viewBox="0 0 191 184" fill="none" xmlns="http://www.w3.org/2000/svg">
<path fill-rule="evenodd" clip-rule="evenodd" d="M93.474 0.263969C93.4115 0.427347 92.1505 1.85587 90.6724 3.43886C84.1751 10.3948 80.1018 17.3246 77.9117 25.1479C77.1036 28.0355 76.4445 29.1098 76.0405 28.1975C75.8156 27.6888 72.1135 25.1019 69.4318 23.579C65.3001 21.2326 56.3044 17.8607 55.1804 18.2369C54.3638 18.5105 52.5107 25.8786 51.6609 32.2304C50.6296 39.9401 51.1037 49.5162 52.91 57.4579C54.0606 62.5168 54.0626 62.5388 53.3242 62.3105C47.7708 60.5933 40.0635 60.6651 34.0957 62.489C30.9625 63.4466 24.6122 66.1527 24.1306 66.7351C23.1423 67.9306 27.9666 79.0746 31.7647 84.3703C36.8215 91.4199 42.805 96.311 49.8266 99.1337C57.0386 102.033 65.8873 102.262 70.9632 99.6788C71.9443 99.1797 72.6803 98.704 72.5986 98.6216C72.5165 98.5396 71.5843 98.7713 70.5264 99.1365C67.6772 100.121 66.0265 100.275 62.4242 99.8929C55.4583 99.154 48.6794 95.873 42.5677 90.2828C37.8614 85.978 33.569 79.1271 31.4134 72.4808C30.3068 69.0694 29.9865 69.4937 35.1561 67.5204C41.2842 65.181 49.0906 64.1056 53.7249 64.962C55.0303 65.2033 55.1643 65.344 56.0654 67.4202C57.5244 70.7832 60.6675 75.2884 64.1508 79.0094C65.8808 80.8577 67.3671 82.2986 67.454 82.2117C67.5404 82.1246 66.5402 80.7242 65.2314 79.0997C61.3587 74.2927 59.6817 70.4901 57.5028 61.5767C55.9444 55.2005 55.4963 51.3927 55.5034 44.5868C55.5086 40.0644 55.6911 37.8519 56.4103 33.6034C57.6905 26.0434 58.0252 24.8754 58.9519 24.7398C61.1232 24.4223 69.5744 28.1264 73.7222 31.2138L76.1266 33.0034L75.8675 34.5905C75.443 37.1929 75.5749 46.6283 76.0651 48.7055C76.7724 51.7013 77.8707 55.2774 78.0334 55.1137C78.1154 55.0313 78.0023 53.9244 77.7818 52.6537C77.2458 49.5626 77.5418 41.3741 78.3072 38.123L78.8996 35.6068L79.7696 36.4069C82.8816 39.2698 87.0257 46.4656 89.1252 52.6527C90.5131 56.7423 90.7619 56.7107 89.9176 52.5525C88.5933 46.0311 84.6759 37.2811 81.5464 33.855C80.0786 32.248 80.0256 31.7286 81.022 28.7137C83.0775 22.4954 86.6674 16.2918 91.2241 11.0826C94.224 7.65339 94.212 7.65819 95.7951 9.20651C100.857 14.1583 104.833 20.3265 107.649 27.5968C109.331 31.9394 109.344 32.0043 108.65 32.7642C103.9 37.973 99.7515 46.3925 98.1773 54.0218C97.9052 55.3412 97.7268 56.465 97.7812 56.5195C97.8352 56.5741 98.3038 55.4174 98.8224 53.9491C100.651 48.7707 104.264 42.4783 107.737 38.4206C108.855 37.1163 109.947 36.0393 110.165 36.0276C111.135 35.9751 111.862 46.2034 111.237 51.1081L110.996 52.9959L111.533 51.7946C112.761 49.0488 113.436 44.5641 113.522 38.5802L113.606 32.7453L116.131 30.9039C120.983 27.3651 130.067 23.5024 130.786 24.6715C131.128 25.2275 131.953 28.6883 132.656 32.5225C135.727 49.255 131.889 70.5196 124.047 80.2159C122.231 82.4616 122.929 82.2893 125.075 79.9625C128.282 76.4839 130.051 73.9436 132.365 69.4926L134.587 65.2173L136.193 64.9414C138.999 64.4595 145.095 64.7269 148.492 65.4806C151.876 66.2316 157.363 68.2776 158.894 69.3595L159.822 70.0147L158.937 72.4887C157.577 76.2889 154.87 81.5383 152.726 84.5313C149.845 88.5519 144.197 93.8167 140.505 95.9224C135.727 98.648 131.99 99.883 127.715 100.149L124.125 100.372L125.493 100.862C127.736 101.666 133.823 101.52 137.109 100.583C143.075 98.8821 148.577 95.4478 153.562 90.3123C156.584 87.1996 159.244 83.2891 161.902 78.0518C163.577 74.7499 166 68.2704 166 67.0914C166 66.7152 161.867 64.6284 157.568 62.8339C154.747 61.6567 151.759 61.0649 147.541 60.848C143.813 60.6565 140.406 61.0848 136.03 62.2958L135.286 62.5014L135.941 60.3881C138.038 53.622 138.916 40.7244 137.823 32.7453C136.879 25.8587 135.019 19.0439 133.891 18.3443C133.293 17.973 127.489 19.7883 124.017 21.4331C120.227 23.2282 117.329 24.9402 114.606 26.9934C113.506 27.8227 112.573 28.4522 112.534 28.3921C112.494 28.3324 112.032 26.9704 111.505 25.3658C108.972 17.6414 104.11 9.84732 97.856 3.48485C94.6076 0.180222 93.7485 -0.451324 93.474 0.263969ZM39.3504 40.017C38.5984 40.075 36.6373 40.3839 34.992 40.7038L32.001 41.2856V43.1222C32.001 45.6206 32.915 49.8818 33.8992 51.9724C34.7842 53.8519 36.2144 55.3594 38.3013 56.6125C39.5435 57.358 39.6249 57.3687 39.3747 56.7522C38.0531 53.4939 36.7866 48.3572 36.7866 46.2559C36.7866 45.4503 36.9822 45.2506 38.0685 44.9458C40.3366 44.3094 45.3284 43.5275 47.5831 43.4555C48.7881 43.417 49.7746 43.2966 49.7753 43.1878C49.7777 42.7385 48.128 41.486 46.6957 40.85C45.1759 40.1749 41.9877 39.8134 39.3504 40.017ZM145.661 39.9967C145.285 40.0959 144.43 40.3177 143.761 40.4896C142.419 40.8346 139.337 42.7549 139.337 43.2461C139.337 43.417 140.683 43.5584 142.328 43.5605C145.319 43.5636 152.77 44.8648 153.323 45.4805C153.888 46.108 152.4 52.4965 150.795 56.3424C150.159 57.8667 153.393 55.9868 155.129 53.8231C156.339 52.3153 157.551 48.7879 158.149 45.0357C158.682 41.6858 158.549 41.417 155.96 40.6101C154.22 40.0674 147.021 39.6387 145.661 39.9967ZM76.6954 61.6055C76.5755 61.726 76.9098 62.19 77.4382 62.6366C77.9671 63.0831 78.7359 64.2336 79.1467 65.193L79.894 66.9369L79.7607 89.3128C79.6212 112.725 79.6106 112.902 78.073 117.235C76.9077 120.518 73.2966 124.991 71.4319 125.461C69.9289 125.84 70.9396 126.165 72.8225 125.908C78.1277 125.186 82.4964 120.984 84.9323 114.263C86.356 110.334 86.3936 109.526 86.2856 85.088L86.1817 61.5767L81.5478 61.4816C78.9991 61.4295 76.8154 61.4851 76.6954 61.6055ZM89.7843 61.6532C89.7915 61.7998 90.2912 62.2319 90.8952 62.6136C93.2317 64.0895 93.1548 63.2294 93.1729 88.0913L93.1893 110.487H96.6076H100.026V100.358V90.2282L101.479 90.4452C106.568 91.2044 109.151 93.804 117.131 106.197C121.901 113.605 123.957 116.376 126.347 118.618C127.817 119.997 132.029 122.243 134.528 122.981C136.475 123.557 142.577 123.754 142.887 123.251C142.981 123.098 142.19 122.704 141.129 122.376C138.4 121.533 135.51 119.669 133.137 117.223C131.216 115.244 129.775 113.163 122.177 101.391C116.619 92.7812 112.879 88.5976 109.542 87.2566L108.256 86.74L110.729 83.9403C112.912 81.4697 115.753 77.7727 120.793 70.8439C122.606 68.3521 125.812 64.9912 127.109 64.2216C128.04 63.669 128.357 63.1212 127.745 63.1212C126.65 63.1212 122.865 64.6603 121.303 65.7408C119.545 66.9565 118.419 68.2282 112.335 75.8661C108.1 81.1831 101.435 87.8339 100.341 87.8339C100.166 87.8339 99.9956 82.1716 99.9446 74.7053L99.855 61.5767L94.813 61.4816C92.0397 61.4295 89.7768 61.5067 89.7843 61.6532Z" fill="#EFBF04"/>
<path d="M0.864 170.7C0.864 169.464 1.134 168.36 1.674 167.388C2.214 166.404 2.952 165.642 3.888 165.102C4.824 164.55 5.868 164.274 7.02 164.274C8.424 164.274 9.624 164.61 10.62 165.282C11.628 165.942 12.36 166.878 12.816 168.09H11.34C10.98 167.238 10.428 166.572 9.684 166.092C8.952 165.612 8.064 165.372 7.02 165.372C6.096 165.372 5.262 165.588 4.518 166.02C3.786 166.452 3.21 167.076 2.79 167.892C2.37 168.696 2.16 169.632 2.16 170.7C2.16 171.768 2.37 172.704 2.79 173.508C3.21 174.312 3.786 174.93 4.518 175.362C5.262 175.794 6.096 176.01 7.02 176.01C8.064 176.01 8.952 175.776 9.684 175.308C10.428 174.828 10.98 174.168 11.34 173.328H12.816C12.36 174.528 11.628 175.458 10.62 176.118C9.612 176.778 8.412 177.108 7.02 177.108C5.868 177.108 4.824 176.838 3.888 176.298C2.952 175.746 2.214 174.984 1.674 174.012C1.134 173.04 0.864 171.936 0.864 170.7ZM19.6287 177.144C18.7047 177.144 17.8707 176.94 17.1267 176.532C16.3947 176.112 15.8127 175.524 15.3807 174.768C14.9607 174 14.7507 173.106 14.7507 172.086C14.7507 171.066 14.9667 170.178 15.3987 169.422C15.8307 168.654 16.4187 168.066 17.1627 167.658C17.9067 167.238 18.7407 167.028 19.6647 167.028C20.5887 167.028 21.4227 167.238 22.1667 167.658C22.9227 168.066 23.5107 168.654 23.9307 169.422C24.3627 170.178 24.5787 171.066 24.5787 172.086C24.5787 173.094 24.3627 173.982 23.9307 174.75C23.4987 175.518 22.9047 176.112 22.1487 176.532C21.3927 176.94 20.5527 177.144 19.6287 177.144ZM19.6287 176.046C20.2767 176.046 20.8767 175.902 21.4287 175.614C21.9807 175.314 22.4247 174.87 22.7607 174.282C23.1087 173.682 23.2827 172.95 23.2827 172.086C23.2827 171.222 23.1147 170.496 22.7787 169.908C22.4427 169.308 21.9987 168.864 21.4467 168.576C20.8947 168.276 20.2947 168.126 19.6467 168.126C18.9987 168.126 18.3987 168.276 17.8467 168.576C17.2947 168.864 16.8507 169.308 16.5147 169.908C16.1907 170.496 16.0287 171.222 16.0287 172.086C16.0287 172.95 16.1907 173.682 16.5147 174.282C16.8507 174.87 17.2887 175.314 17.8287 175.614C18.3807 175.902 18.9807 176.046 19.6287 176.046ZM31.1775 177.144C30.2535 177.144 29.4195 176.94 28.6755 176.532C27.9435 176.112 27.3615 175.524 26.9295 174.768C26.5095 174 26.2995 173.106 26.2995 172.086C26.2995 171.066 26.5155 170.178 26.9475 169.422C27.3795 168.654 27.9675 168.066 28.7115 167.658C29.4555 167.238 30.2895 167.028 31.2135 167.028C32.1375 167.028 32.9715 167.238 33.7155 167.658C34.4715 168.066 35.0595 168.654 35.4795 169.422C35.9115 170.178 36.1275 171.066 36.1275 172.086C36.1275 173.094 35.9115 173.982 35.4795 174.75C35.0475 175.518 34.4535 176.112 33.6975 176.532C32.9415 176.94 32.1015 177.144 31.1775 177.144ZM31.1775 176.046C31.8255 176.046 32.4255 175.902 32.9775 175.614C33.5295 175.314 33.9735 174.87 34.3095 174.282C34.6575 173.682 34.8315 172.95 34.8315 172.086C34.8315 171.222 34.6635 170.496 34.3275 169.908C33.9915 169.308 33.5475 168.864 32.9955 168.576C32.4435 168.276 31.8435 168.126 31.1955 168.126C30.5475 168.126 29.9475 168.276 29.3955 168.576C28.8435 168.864 28.3995 169.308 28.0635 169.908C27.7395 170.496 27.5775 171.222 27.5775 172.086C27.5775 172.95 27.7395 173.682 28.0635 174.282C28.3995 174.87 28.8375 175.314 29.3775 175.614C29.9295 175.902 30.5295 176.046 31.1775 176.046ZM39.6844 163.68V177H38.4244V163.68H39.6844ZM42.7537 177.09C42.4897 177.09 42.2677 177 42.0877 176.82C41.9197 176.64 41.8357 176.418 41.8357 176.154C41.8357 175.89 41.9197 175.674 42.0877 175.506C42.2677 175.326 42.4897 175.236 42.7537 175.236C43.0057 175.236 43.2157 175.326 43.3837 175.506C43.5637 175.674 43.6537 175.89 43.6537 176.154C43.6537 176.418 43.5637 176.64 43.3837 176.82C43.2157 177 43.0057 177.09 42.7537 177.09ZM63.0406 164.58V177H61.7806V167.082L57.3526 177H56.4346L52.0066 167.118V177H50.7466V164.58H52.0786L56.8846 175.344L61.6906 164.58H63.0406ZM70.201 177.144C69.277 177.144 68.443 176.94 67.699 176.532C66.967 176.112 66.385 175.524 65.953 174.768C65.533 174 65.323 173.106 65.323 172.086C65.323 171.066 65.539 170.178 65.971 169.422C66.403 168.654 66.991 168.066 67.735 167.658C68.479 167.238 69.313 167.028 70.237 167.028C71.161 167.028 71.995 167.238 72.739 167.658C73.495 168.066 74.083 168.654 74.503 169.422C74.935 170.178 75.151 171.066 75.151 172.086C75.151 173.094 74.935 173.982 74.503 174.75C74.071 175.518 73.477 176.112 72.721 176.532C71.965 176.94 71.125 177.144 70.201 177.144ZM70.201 176.046C70.849 176.046 71.449 175.902 72.001 175.614C72.553 175.314 72.997 174.87 73.333 174.282C73.681 173.682 73.855 172.95 73.855 172.086C73.855 171.222 73.687 170.496 73.351 169.908C73.015 169.308 72.571 168.864 72.019 168.576C71.467 168.276 70.867 168.126 70.219 168.126C69.571 168.126 68.971 168.276 68.419 168.576C67.867 168.864 67.423 169.308 67.087 169.908C66.763 170.496 66.601 171.222 66.601 172.086C66.601 172.95 66.763 173.682 67.087 174.282C67.423 174.87 67.861 175.314 68.401 175.614C68.953 175.902 69.553 176.046 70.201 176.046ZM76.8718 172.068C76.8718 171.06 77.0758 170.178 77.4838 169.422C77.8918 168.654 78.4498 168.066 79.1578 167.658C79.8778 167.238 80.6878 167.028 81.5878 167.028C82.4518 167.028 83.2318 167.238 83.9278 167.658C84.6238 168.078 85.1338 168.624 85.4578 169.296V163.68H86.7178V177H85.4578V174.804C85.1578 175.488 84.6658 176.052 83.9818 176.496C83.2978 176.928 82.4938 177.144 81.5698 177.144C80.6698 177.144 79.8598 176.934 79.1398 176.514C78.4318 176.094 77.8738 175.5 77.4658 174.732C77.0698 173.964 76.8718 173.076 76.8718 172.068ZM85.4578 172.086C85.4578 171.294 85.2958 170.598 84.9718 169.998C84.6478 169.398 84.2038 168.936 83.6398 168.612C83.0878 168.288 82.4758 168.126 81.8038 168.126C81.1078 168.126 80.4838 168.282 79.9318 168.594C79.3798 168.906 78.9418 169.362 78.6178 169.962C78.3058 170.55 78.1498 171.252 78.1498 172.068C78.1498 172.872 78.3058 173.58 78.6178 174.192C78.9418 174.792 79.3798 175.254 79.9318 175.578C80.4838 175.89 81.1078 176.046 81.8038 176.046C82.4758 176.046 83.0878 175.884 83.6398 175.56C84.2038 175.236 84.6478 174.774 84.9718 174.174C85.2958 173.574 85.4578 172.878 85.4578 172.086ZM98.4863 171.582C98.4863 172.014 98.4743 172.344 98.4503 172.572H90.2963C90.3323 173.316 90.5123 173.952 90.8363 174.48C91.1603 175.008 91.5863 175.41 92.1143 175.686C92.6423 175.95 93.2183 176.082 93.8423 176.082C94.6583 176.082 95.3423 175.884 95.8943 175.488C96.4583 175.092 96.8303 174.558 97.0103 173.886H98.3423C98.1023 174.846 97.5863 175.632 96.7943 176.244C96.0143 176.844 95.0303 177.144 93.8423 177.144C92.9183 177.144 92.0903 176.94 91.3583 176.532C90.6263 176.112 90.0503 175.524 89.6303 174.768C89.2223 174 89.0183 173.106 89.0183 172.086C89.0183 171.066 89.2223 170.172 89.6303 169.404C90.0383 168.636 90.6083 168.048 91.3403 167.64C92.0723 167.232 92.9063 167.028 93.8423 167.028C94.7783 167.028 95.5943 167.232 96.2903 167.64C96.9983 168.048 97.5383 168.6 97.9103 169.296C98.2943 169.98 98.4863 170.742 98.4863 171.582ZM97.2083 171.546C97.2203 170.814 97.0703 170.19 96.7583 169.674C96.4583 169.158 96.0443 168.768 95.5163 168.504C94.9883 168.24 94.4123 168.108 93.7883 168.108C92.8523 168.108 92.0543 168.408 91.3943 169.008C90.7343 169.608 90.3683 170.454 90.2963 171.546H97.2083ZM102.052 168.918C102.328 168.306 102.748 167.832 103.312 167.496C103.888 167.16 104.59 166.992 105.418 166.992V168.306H105.076C104.164 168.306 103.432 168.552 102.88 169.044C102.328 169.536 102.052 170.358 102.052 171.51V177H100.792V167.172H102.052V168.918ZM111.921 166.992C113.097 166.992 114.057 167.358 114.801 168.09C115.545 168.81 115.917 169.86 115.917 171.24V177H114.675V171.384C114.675 170.316 114.405 169.5 113.865 168.936C113.337 168.372 112.611 168.09 111.687 168.09C110.739 168.09 109.983 168.39 109.419 168.99C108.855 169.59 108.573 170.472 108.573 171.636V177H107.313V167.172H108.573V168.846C108.885 168.246 109.335 167.79 109.923 167.478C110.511 167.154 111.177 166.992 111.921 166.992ZM118.92 177.09C118.656 177.09 118.434 177 118.254 176.82C118.086 176.64 118.002 176.418 118.002 176.154C118.002 175.89 118.086 175.674 118.254 175.506C118.434 175.326 118.656 175.236 118.92 175.236C119.172 175.236 119.382 175.326 119.55 175.506C119.73 175.674 119.82 175.89 119.82 176.154C119.82 176.418 119.73 176.64 119.55 176.82C119.382 177 119.172 177.09 118.92 177.09ZM136.885 164.418L132.115 177H130.675L125.905 164.418H127.273L131.395 175.632L135.553 164.418H136.885ZM138.202 172.068C138.202 171.06 138.4 170.178 138.796 169.422C139.204 168.654 139.762 168.066 140.47 167.658C141.19 167.238 142 167.028 142.9 167.028C143.836 167.028 144.64 167.244 145.312 167.676C145.996 168.108 146.488 168.66 146.788 169.332V167.172H148.048V177H146.788V174.822C146.476 175.494 145.978 176.052 145.294 176.496C144.622 176.928 143.818 177.144 142.882 177.144C141.994 177.144 141.19 176.934 140.47 176.514C139.762 176.094 139.204 175.5 138.796 174.732C138.4 173.964 138.202 173.076 138.202 172.068ZM146.788 172.086C146.788 171.294 146.626 170.598 146.302 169.998C145.978 169.398 145.534 168.936 144.97 168.612C144.418 168.288 143.806 168.126 143.134 168.126C142.438 168.126 141.814 168.282 141.262 168.594C140.71 168.906 140.272 169.362 139.948 169.962C139.636 170.55 139.48 171.252 139.48 172.068C139.48 172.872 139.636 173.58 139.948 174.192C140.272 174.792 140.71 175.254 141.262 175.578C141.814 175.89 142.438 176.046 143.134 176.046C143.806 176.046 144.418 175.884 144.97 175.56C145.534 175.236 145.978 174.774 146.302 174.174C146.626 173.574 146.788 172.878 146.788 172.086ZM152.184 168.918C152.46 168.306 152.88 167.832 153.444 167.496C154.02 167.16 154.722 166.992 155.55 166.992V168.306H155.208C154.296 168.306 153.564 168.552 153.012 169.044C152.46 169.536 152.184 170.358 152.184 171.51V177H150.924V167.172H152.184V168.918ZM158.076 165.318C157.824 165.318 157.608 165.228 157.428 165.048C157.248 164.868 157.158 164.646 157.158 164.382C157.158 164.118 157.248 163.902 157.428 163.734C157.608 163.554 157.824 163.464 158.076 163.464C158.328 163.464 158.544 163.554 158.724 163.734C158.904 163.902 158.994 164.118 158.994 164.382C158.994 164.646 158.904 164.868 158.724 165.048C158.544 165.228 158.328 165.318 158.076 165.318ZM158.706 167.172V177H157.446V167.172H158.706ZM170.451 171.582C170.451 172.014 170.439 172.344 170.415 172.572H162.261C162.297 173.316 162.477 173.952 162.801 174.48C163.125 175.008 163.551 175.41 164.079 175.686C164.607 175.95 165.183 176.082 165.807 176.082C166.623 176.082 167.307 175.884 167.859 175.488C168.423 175.092 168.795 174.558 168.975 173.886H170.307C170.067 174.846 169.551 175.632 168.759 176.244C167.979 176.844 166.995 177.144 165.807 177.144C164.883 177.144 164.055 176.94 163.323 176.532C162.591 176.112 162.015 175.524 161.595 174.768C161.187 174 160.983 173.106 160.983 172.086C160.983 171.066 161.187 170.172 161.595 169.404C162.003 168.636 162.573 168.048 163.305 167.64C164.037 167.232 164.871 167.028 165.807 167.028C166.743 167.028 167.559 167.232 168.255 167.64C168.963 168.048 169.503 168.6 169.875 169.296C170.259 169.98 170.451 170.742 170.451 171.582ZM169.173 171.546C169.185 170.814 169.035 170.19 168.723 169.674C168.423 169.158 168.009 168.768 167.481 168.504C166.953 168.24 166.377 168.108 165.753 168.108C164.817 168.108 164.019 168.408 163.359 169.008C162.699 169.608 162.333 170.454 162.261 171.546H169.173ZM174.394 168.234V174.336C174.394 174.936 174.508 175.35 174.736 175.578C174.964 175.806 175.366 175.92 175.942 175.92H177.094V177H175.744C174.856 177 174.196 176.796 173.764 176.388C173.332 175.968 173.116 175.284 173.116 174.336V168.234H171.748V167.172H173.116V164.706H174.394V167.172H177.094V168.234H174.394ZM187.272 167.172L181.44 181.626H180.126L182.034 176.946L178.002 167.172H179.388L182.736 175.56L185.976 167.172H187.272ZM189.197 177.09C188.933 177.09 188.711 177 188.531 176.82C188.363 176.64 188.279 176.418 188.279 176.154C188.279 175.89 188.363 175.674 188.531 175.506C188.711 175.326 188.933 175.236 189.197 175.236C189.449 175.236 189.659 175.326 189.827 175.506C190.007 175.674 190.097 175.89 190.097 176.154C190.097 176.418 190.007 176.64 189.827 176.82C189.659 177 189.449 177.09 189.197 177.09Z" fill="#EFBF04"/>
</svg>
