<svg width="101" height="100" viewBox="0 0 101 100" fill="none" xmlns="http://www.w3.org/2000/svg">
<path d="M92.5835 70.5001V83.0001C92.5883 84.1605 92.3482 85.3091 91.8787 86.3724C91.4091 87.4356 90.7205 88.39 89.8568 89.1745C88.9932 89.959 87.9736 90.5563 86.8633 90.928C85.7531 91.2998 84.5766 91.4379 83.4094 91.3334C70.4596 89.9403 58.0205 85.559 47.0914 78.5417C36.9234 72.1445 28.3026 63.6091 21.8414 53.5417C14.7293 42.6718 10.3032 30.2959 8.92185 17.4167C8.81669 16.2645 8.95499 15.1032 9.32796 14.0068C9.70092 12.9104 10.3004 11.903 11.0882 11.0485C11.8759 10.194 12.8348 9.51137 13.9036 9.04392C14.9725 8.57647 16.128 8.3345 17.2964 8.33341H29.9214C31.9638 8.31351 33.9437 9.02957 35.4923 10.3481C37.0408 11.6667 38.0523 13.4978 38.3381 15.5001C38.871 19.5004 39.8592 23.4281 41.2839 27.2084C41.8501 28.6998 41.9727 30.3206 41.637 31.8787C41.3014 33.4369 40.5217 34.8672 39.3902 36.0001L34.0456 41.2917C40.0364 51.7232 48.7599 60.3603 59.2956 66.2917L64.6402 61.0001C65.7844 59.8798 67.229 59.1078 68.8027 58.7755C70.3765 58.4432 72.0135 58.5645 73.5198 59.1251C77.3379 60.5357 81.3049 61.5142 85.3452 62.0418C87.3895 62.3273 89.2564 63.3468 90.591 64.9063C91.9256 66.4658 92.6347 68.4566 92.5835 70.5001Z" fill="#EFBF04"/>
</svg>
